HIERARCHY
ROOT Hips
{
	OFFSET 52.730202 -49.935116 85.969589
	CHANNELS 6 Xposition Yposition Zposition Xrotation Yrotation Zrotation
	JOINT spine
	{
		OFFSET 0.000000 -0.367607 6.392601
		CHANNELS 3 Xrotation Yrotation Zrotation
		JOINT spine1
		{
			OFFSET 0.000000 0.000000 9.176109
			CHANNELS 3 Xrotation Yrotation Zrotation
			JOINT spine2
			{
				OFFSET 0.000000 -0.000004 8.792381
				CHANNELS 3 Xrotation Yrotation Zrotation
				JOINT Neck
				{
					OFFSET 0.000000 -1.076244 22.573692
					CHANNELS 3 Xrotation Yrotation Zrotation
					JOINT Head
					{
						OFFSET 0.000000 0.000000 6.820114
						CHANNELS 3 Xrotation Yrotation Zrotation
						End Site
						{
							OFFSET 0.000000 5.444267 16.508514
						}
					}
				}
				JOINT RightShoulder
				{
					OFFSET -3.702209 0.515507 9.495087
					CHANNELS 3 Xrotation Yrotation Zrotation
					JOINT RightArm
					{
						OFFSET 0.000000 -0.000004 12.453697
						CHANNELS 3 Xrotation Yrotation Zrotation
						JOINT RightArmRoll
						{
							OFFSET 0.000000 0.000000 6.286865
							CHANNELS 3 Xrotation Yrotation Zrotation
							JOINT RightForeArm
							{
								OFFSET 0.000000 -0.000004 18.311401
								CHANNELS 3 Xrotation Yrotation Zrotation
								JOINT RightForeArmRoll
								{
									OFFSET 0.000000 0.000000 7.054825
									CHANNELS 3 Xrotation Yrotation Zrotation
									JOINT RightHand
									{
										OFFSET 0.000000 -0.000004 14.157501
										CHANNELS 3 Xrotation Yrotation Zrotation
										End Site
										{
											OFFSET 0.000000 0.000000 0.100006
										}
									}
								}
							}
						}
					}
				}
				JOINT LeftShoulder
				{
					OFFSET 3.702209 0.515507 9.495087
					CHANNELS 3 Xrotation Yrotation Zrotation
					JOINT LeftArm
					{
						OFFSET 0.000000 -0.000004 12.453697
						CHANNELS 3 Xrotation Yrotation Zrotation
						JOINT LeftArmRoll
						{
							OFFSET 0.000000 0.000000 6.286865
							CHANNELS 3 Xrotation Yrotation Zrotation
							JOINT LeftForeArm
							{
								OFFSET 0.000000 -0.000004 18.311401
								CHANNELS 3 Xrotation Yrotation Zrotation
								JOINT LeftForeArmRoll
								{
									OFFSET 0.000000 0.000000 7.054825
									CHANNELS 3 Xrotation Yrotation Zrotation
									JOINT LeftHand
									{
										OFFSET 0.000000 -0.000004 14.157501
										CHANNELS 3 Xrotation Yrotation Zrotation
										End Site
										{
											OFFSET 0.000000 0.000000 0.100006
										}
									}
								}
							}
						}
					}
				}
			}
		}
	}
	JOINT RightUpLeg
	{
		OFFSET -5.666161 0.871609 -1.039032
		CHANNELS 3 Xrotation Yrotation Zrotation
		JOINT RightUpLegRoll
		{
			OFFSET 0.000000 0.000000 16.600502
			CHANNELS 3 Xrotation Yrotation Zrotation
			JOINT RightLeg
			{
				OFFSET 0.000000 0.000004 -20.557198
				CHANNELS 3 Xrotation Yrotation Zrotation
				JOINT RightLegRoll
				{
					OFFSET 0.000000 -0.000004 20.624397
					CHANNELS 3 Xrotation Yrotation Zrotation
					JOINT RightFoot
					{
						OFFSET 0.000000 -0.000004 17.166397
						CHANNELS 3 Xrotation Yrotation Zrotation
						JOINT RightToeBase
						{
							OFFSET 0.000000 -0.000004 14.350197
							CHANNELS 3 Xrotation Yrotation Zrotation
							End Site
							{
								OFFSET 0.006081 0.801060 6.949707
							}
						}
					}
				}
			}
		}
	}
	JOINT LeftUpLeg
	{
		OFFSET 5.666161 0.871609 -1.039032
		CHANNELS 3 Xrotation Yrotation Zrotation
		JOINT LeftUpLegRoll
		{
			OFFSET 0.000000 0.000000 16.600601
			CHANNELS 3 Xrotation Yrotation Zrotation
			JOINT LeftLeg
			{
				OFFSET 0.000000 -0.000004 20.557098
				CHANNELS 3 Xrotation Yrotation Zrotation
				JOINT LeftLegRoll
				{
					OFFSET 0.000000 -0.000004 20.815094
					CHANNELS 3 Xrotation Yrotation Zrotation
					JOINT LeftFoot
					{
						OFFSET 0.000000 -0.000004 16.975693
						CHANNELS 3 Xrotation Yrotation Zrotation
						JOINT LeftToeBase
						{
							OFFSET 0.000000 0.000000 14.350204
							CHANNELS 3 Xrotation Yrotation Zrotation
							End Site
							{
								OFFSET -0.027260 0.801056 6.949707
							}
						}
					}
				}
			}
		}
	}
}
MOTION
Frames: 6
Frame Time: 0.041667
52.906208 -37.903831 81.049278 13.814748 -0.928037 6.934259 -0.906326 0.722295 -0.256470 2.193526 1.442023 -0.511215 3.838788 1.435803 -0.528455 -6.658998 -1.815259 -1.063790 1.367620 -0.611456 -0.513954 2.173605 -58.952579 2.564499 -51.392659 -122.811296 -60.778561 -0.000001 0.000022 0.000008 20.686824 -18.480788 3.631129 -0.000004 -0.000001 -2.999999 -4.999920 -7.998775 0.000026 -0.070442 53.351680 -0.646239 -49.094771 127.505562 59.870221 -0.000005 0.000010 -0.000001 18.163884 15.452152 -1.878805 0.000006 -0.000003 3.000000 -4.999645 7.998721 0.000022 -40.423877 -173.801854 -1.096083 179.999991 -0.000005 -0.747996 142.389596 -2.920682 -2.392946 -0.000002 -0.000002 0.595531 74.617030 6.653832 2.407023 25.685666 -7.355689 0.347347 -40.013823 179.131451 4.786778 -0.000006 -0.000004 -0.801501 -35.077649 0.092235 0.903810 -0.000008 0.000006 -0.757941 73.354278 -6.736865 -2.249060 25.479988 7.355618 -0.041023 
52.898911 -37.988224 81.109192 13.718273 -0.937785 6.944692 -0.919697 0.722435 -0.256958 2.166788 1.443598 -0.512252 3.812052 1.437354 -0.529510 -6.533903 -1.801381 -1.053795 1.379004 -0.593705 -0.511455 2.088408 -58.972584 2.462036 -51.379063 -122.715386 -60.761861 -0.000003 0.000021 0.000008 20.669681 -18.507316 3.638275 -0.000002 -0.000000 -2.999995 -4.999918 -7.998776 0.000025 -0.117375 53.393040 -0.583877 -49.080404 127.355379 59.804112 -0.000004 0.000011 -0.000002 18.185167 15.465193 -1.883820 0.000002 -0.000004 3.000000 -4.999643 7.998718 0.000020 -40.152418 -173.807933 -1.105336 179.999991 -0.000005 -0.750005 142.590881 -2.900702 -2.374438 -0.000004 -0.000002 0.593283 74.564820 6.655627 2.405355 25.695474 -7.355680 0.362142 -39.726197 179.137024 4.797923 -0.000003 -0.000005 -0.802082 -34.841533 0.080080 0.896953 -0.000007 0.000005 -0.750786 73.303209 -6.738171 -2.248922 25.481295 7.355619 -0.044499 
52.915909 -38.064724 81.166283 13.622601 -0.947417 6.954558 -0.933061 0.722664 -0.257363 2.140071 1.445172 -0.513099 3.785336 1.438925 -0.530376 -6.408730 -1.786622 -1.044719 1.389298 -0.577833 -0.509919 2.000636 -58.993587 2.356424 -51.365601 -122.620815 -60.743154 -0.000003 0.000022 0.000007 20.652028 -18.532380 3.644739 -0.000003 -0.000003 -3.000000 -4.999917 -7.998776 0.000025 -0.165147 53.434776 -0.520483 -49.065528 127.205908 59.736022 -0.000004 0.000011 -0.000001 18.205424 15.477176 -1.888506 0.000002 -0.000003 3.000000 -4.999643 7.998720 0.000019 -39.881352 -173.814422 -1.111665 179.999991 -0.000005 -0.751002 142.793547 -2.883795 -2.358440 -0.000003 -0.000002 0.590843 74.512501 6.657347 2.403989 25.704763 -7.355662 0.376203 -39.439572 179.142680 4.809018 -0.000005 -0.000004 -0.802666 -34.605522 0.067604 0.890054 -0.000008 0.000006 -0.743685 73.252795 -6.739452 -2.248644 25.482614 7.355621 -0.047666 
52.920605 -38.151718 81.220383 13.527823 -0.956908 6.963832 -0.946425 0.723003 -0.257647 2.113345 1.446756 -0.513670 3.758610 1.440497 -0.530964 -6.283305 -1.770855 -1.036905 1.397950 -0.564285 -0.509684 1.909469 -59.015751 2.246672 -51.351678 -122.528539 -60.720942 -0.000002 0.000022 0.000008 20.632784 -18.555833 3.650284 -0.000004 -0.000003 -3.000000 -4.999918 -7.998778 0.000026 -0.213520 53.477311 -0.456290 -49.051355 127.056654 59.667269 -0.000004 0.000010 -0.000001 18.223933 15.488248 -1.892781 0.000004 -0.000003 3.000002 -4.999646 7.998718 0.000018 -39.610893 -173.819025 -1.116580 179.999991 -0.000005 -0.751999 142.997865 -2.869984 -2.342932 -0.000003 -0.000002 0.588178 74.460393 6.659017 2.402606 25.713347 -7.355652 0.389328 -39.154053 179.147748 4.820728 -0.000005 -0.000005 -0.803255 -34.370017 0.054774 0.883105 -0.000008 0.000006 -0.736660 73.203167 -6.740765 -2.248424 25.483822 7.355609 -0.050441 
52.929604 -38.227425 81.283386 13.433748 -0.966229 6.972497 -0.959817 0.723477 -0.257764 2.086566 1.448340 -0.513875 3.731836 1.442078 -0.531189 -6.157397 -1.753979 -1.030693 1.404346 -0.553503 -0.511079 1.814192 -59.039629 2.131886 -51.339018 -122.438244 -60.696176 -0.000002 0.000022 0.000006 20.610422 -18.577264 3.654427 -0.000002 -0.000002 -3.000001 -4.999916 -7.998776 0.000026 -0.262273 53.520915 -0.391523 -49.038180 126.907701 59.597902 -0.000005 0.000012 -0.000002 18.240193 15.498642 -1.896676 0.000002 -0.000004 3.000000 -4.999647 7.998721 0.000023 -39.340780 -173.822440 -1.118963 179.999991 -0.000005 -0.753993 143.203863 -2.859281 -2.328842 -0.000002 -0.000002 0.585254 74.408607 6.660631 2.401595 25.721326 -7.355634 0.401363 -38.869548 179.152857 4.832419 -0.000003 -0.000004 -0.803855 -34.135011 0.041559 0.876098 -0.000009 0.000006 -0.729735 73.154645 -6.742091 -2.248041 25.484833 7.355614 -0.052729 
52.928204 -38.312820 81.346092 13.340669 -0.975345 6.980540 -0.973257 0.724106 -0.257679 2.059688 1.449924 -0.513632 3.704957 1.443658 -0.530964 -6.030818 -1.735865 -1.026426 1.407925 -0.545932 -0.514441 1.714038 -59.065495 2.011108 -51.326638 -122.350709 -60.667045 -0.000002 0.000022 0.000009 20.583871 -18.596708 3.656972 -0.000003 -0.000004 -2.999999 -4.999915 -7.998776 0.000025 -0.311188 53.566100 -0.326410 -49.027255 126.758557 59.529367 -0.000004 0.000011 -0.000001 18.253901 15.508385 -1.900159 0.000002 -0.000003 3.000001 -4.999647 7.998718 0.000018 -39.070823 -173.825432 -1.117722 179.999991 -0.000005 -0.755004 143.411788 -2.853336 -2.316322 -0.000003 -0.000002 0.582038 74.357654 6.662069 2.400915 25.728389 -7.355619 0.412107 -38.586338 179.157337 4.844691 -0.000006 -0.000004 -0.804471 -33.900606 0.027924 0.869024 -0.000007 0.000005 -0.722935 73.107654 -6.743412 -2.247567 25.485750 7.355613 -0.054492 
